<svg version="1.1" xmlns="http://www.w3.org/2000/svg" xmlns:xlink="http://www.w3.org/1999/xlink" width="378.05006" height="112.14984" viewBox="0,0,378.05006,112.14984"><g transform="translate(-50.97497,-123.92508)"><g data-paper-data="{&quot;isPaintingLayer&quot;:true}" fill="#000000" fill-rule="nonzero" stroke="none" stroke-width="1" stroke-linecap="square" stroke-linejoin="miter" stroke-miterlimit="10" stroke-dasharray="" stroke-dashoffset="0" style="mix-blend-mode: normal"><path d="M50.97497,184.34966v-52.80282h11.45654l19.23361,31.31135l-8.21908,-0.08362l19.46059,-31.22773h11.01452v52.80282h-12.44809v-16.43816c0,-4.53164 0.1115,-8.60535 0.3345,-12.2211c0.23096,-3.62372 0.62519,-7.21957 1.18269,-10.78754l1.42161,3.9184l-14.62232,22.70999h-4.98162l-14.33561,-22.55469l1.43356,-4.0737c0.5575,3.36887 0.94774,6.82534 1.17074,10.36942c0.223,3.54408 0.3345,7.75716 0.3345,12.63923v16.43816zM134.7748,185.10228c-4.17325,0 -7.88458,-0.90394 -11.13399,-2.71182c-3.24144,-1.80788 -5.80592,-4.26883 -7.69344,-7.38284c-1.87956,-3.12198 -2.81934,-6.69791 -2.81934,-10.72781c0,-4.02193 0.93978,-7.58991 2.81934,-10.70392c1.88752,-3.12198 4.452,-5.5869 7.69344,-7.39478c3.2494,-1.80788 6.96073,-2.71182 11.13399,-2.71182c4.17325,0 7.8806,0.90394 11.12204,2.71182c3.24144,1.80788 5.79397,4.27281 7.6576,7.39478c1.86363,3.11401 2.79544,6.68199 2.79544,10.70392c0,4.0299 -0.93181,7.60584 -2.79544,10.72781c-1.86363,3.11401 -4.41616,5.57496 -7.6576,7.38284c-3.24144,1.80788 -6.94879,2.71182 -11.12204,2.71182zM134.7748,174.69702c1.80788,0 3.41665,-0.44998 4.82632,-1.34994c1.40967,-0.90792 2.5167,-2.14238 3.32108,-3.70337c0.80439,-1.56099 1.17871,-3.34896 1.12296,-5.36391c0.05575,-2.00698 -0.31857,-3.80292 -1.12296,-5.3878c-0.80439,-1.58488 -1.91141,-2.8273 -3.32108,-3.72726c-1.40967,-0.90792 -3.01844,-1.36188 -4.82632,-1.36188c-1.81584,0 -3.44055,0.45396 -4.87411,1.36188c-1.4256,0.89996 -2.54059,2.14238 -3.34497,3.72726c-0.80439,1.58488 -1.18269,3.38081 -1.1349,5.3878c-0.04779,2.01495 0.33052,3.80292 1.1349,5.36391c0.80439,1.56099 1.91938,2.79544 3.34497,3.70337c1.43356,0.89996 3.05826,1.34994 4.87411,1.34994zM183.12488,185.10228c-4.17325,0 -7.88458,-0.90394 -11.13399,-2.71182c-3.24144,-1.80788 -5.80592,-4.26883 -7.69344,-7.38284c-1.87956,-3.12198 -2.81934,-6.69791 -2.81934,-10.72781c0,-4.02193 0.93978,-7.58991 2.81934,-10.70392c1.88752,-3.12198 4.452,-5.5869 7.69344,-7.39478c3.2494,-1.80788 6.96073,-2.71182 11.13399,-2.71182c4.17325,0 7.8806,0.90394 11.12204,2.71182c3.24144,1.80788 5.79397,4.27281 7.6576,7.39478c1.86363,3.11401 2.79544,6.68199 2.79544,10.70392c0,4.0299 -0.93181,7.60584 -2.79544,10.72781c-1.86363,3.11401 -4.41616,5.57496 -7.6576,7.38284c-3.24144,1.80788 -6.94879,2.71182 -11.12204,2.71182zM183.12488,174.69702c1.80788,0 3.41665,-0.44998 4.82632,-1.34994c1.40967,-0.90792 2.5167,-2.14238 3.32108,-3.70337c0.80439,-1.56099 1.17871,-3.34896 1.12296,-5.36391c0.05575,-2.00698 -0.31857,-3.80292 -1.12296,-5.3878c-0.80439,-1.58488 -1.91141,-2.8273 -3.32108,-3.72726c-1.40967,-0.90792 -3.01844,-1.36188 -4.82632,-1.36188c-1.81584,0 -3.44055,0.45396 -4.87411,1.36188c-1.4256,0.89996 -2.54059,2.14238 -3.34497,3.72726c-0.80439,1.58488 -1.18269,3.38081 -1.1349,5.3878c-0.04779,2.01495 0.33052,3.80292 1.1349,5.36391c0.80439,1.56099 1.91938,2.79544 3.34497,3.70337c1.43356,0.89996 3.05826,1.34994 4.87411,1.34994zM212.61169,184.34966v-40.05607h11.46849l0.38228,8.1474l-2.41316,0.90792c0.54953,-1.80788 1.54108,-3.45249 2.97464,-4.93384c1.43356,-1.48931 3.15383,-2.68394 5.16082,-3.5839c2.01495,-0.90792 4.12945,-1.36188 6.34351,-1.36188c3.01844,0 5.55505,0.61723 7.60982,1.85168c2.06273,1.22649 3.62372,3.06224 4.68296,5.50726c1.05924,2.43705 1.58886,5.41567 1.58886,8.93586v24.58557h-12.14943v-23.60597c0,-1.60877 -0.22698,-2.94278 -0.68094,-4.00202c-0.45396,-1.05924 -1.14685,-1.85168 -2.07866,-2.37732c-0.92385,-0.52564 -2.06672,-0.76457 -3.4286,-0.71678c-1.05128,0 -2.03088,0.16327 -2.9388,0.4898c-0.90792,0.32653 -1.68842,0.80439 -2.34148,1.43356c-0.65307,0.62917 -1.16676,1.34595 -1.54108,2.15034c-0.37432,0.80439 -0.56148,1.68443 -0.56148,2.64014v23.98825h-5.96122c-1.40967,0 -2.62023,0 -3.63169,0c-1.00349,0 -1.83177,0 -2.48484,0zM260.5928,184.34966v-55.8133h12.0658v55.8133zM284.12056,184.34966v-40.05607h12.0658v40.05607zM290.15346,136.37316c-2.26184,0 -4.03388,-0.53759 -5.31612,-1.61276c-1.28224,-1.08313 -1.92336,-2.63218 -1.92336,-4.64713c0,-1.80788 0.65307,-3.28923 1.9592,-4.44404c1.30613,-1.16278 3.06623,-1.74417 5.28028,-1.74417c2.26184,0 4.02193,0.54157 5.28028,1.6247c1.25835,1.08313 1.88752,2.6043 1.88752,4.5635c0,1.86363 -0.64112,3.37285 -1.92336,4.52766c-1.28224,1.15481 -3.03039,1.73222 -5.24444,1.73222zM325.83918,201.69575c-3.2733,0 -6.53067,-0.47785 -9.77211,-1.43356c-3.24147,-0.95571 -5.86968,-2.18618 -7.88463,-3.69142l4.22905,-8.44606c1.05128,0.70085 2.21804,1.3141 3.50028,1.83974c1.28224,0.5336 2.62819,0.94774 4.03786,1.24242c1.40967,0.30264 2.84323,0.45396 4.30068,0.45396c2.56448,0 4.65111,-0.3783 6.25988,-1.1349c1.60877,-0.74864 2.81535,-1.8915 3.61974,-3.4286c0.80439,-1.52913 1.20658,-3.45249 1.20658,-5.77008v-6.71384l2.34148,0.38228c-0.35043,1.65656 -1.21853,3.16578 -2.6043,4.52766c-1.38578,1.35392 -3.08614,2.449 -5.10109,3.28524c-2.00698,0.82828 -4.1414,1.24242 -6.40324,1.24242c-3.61576,0 -6.84525,-0.84023 -9.68848,-2.52068c-2.84326,-1.68842 -5.08122,-4.0299 -6.71389,-7.02445c-1.63267,-2.99455 -2.449,-6.45102 -2.449,-10.36942c0,-4.02193 0.80439,-7.57796 2.41316,-10.66808c1.60877,-3.09808 3.81886,-5.53912 6.63026,-7.32311c2.81934,-1.78399 5.9891,-2.67598 9.50929,-2.67598c1.50524,0 2.95075,0.17521 4.33652,0.52564c1.38578,0.35043 2.66802,0.81633 3.84672,1.39772c1.17871,0.57342 2.23397,1.25038 3.16578,2.03088c0.93181,0.78049 1.68443,1.6247 2.25786,2.53262c0.58139,0.89996 0.97164,1.82779 1.17074,2.7835l-2.48484,0.60926l0.45396,-9.05532h11.46849v36.80667c0,3.2733 -0.49378,6.18024 -1.48135,8.72083c-0.9796,2.54059 -2.41316,4.70288 -4.30068,6.48686c-1.87956,1.78399 -4.15334,3.12596 -6.82136,4.02592c-2.66005,0.90792 -5.67451,1.36188 -9.04338,1.36188zM326.13784,174.69702c1.9592,0 3.65558,-0.43803 5.08914,-1.3141c1.43356,-0.88403 2.54059,-2.10654 3.32108,-3.66753c0.78049,-1.56099 1.17074,-3.39674 1.17074,-5.50726c0,-2.11052 -0.39025,-3.95822 -1.17074,-5.5431c-0.78049,-1.58488 -1.88752,-2.81535 -3.32108,-3.69142c-1.43356,-0.88403 -3.12994,-1.32604 -5.08914,-1.32604c-1.91141,0 -3.57196,0.44201 -4.98162,1.32604c-1.40967,0.87606 -2.50475,2.10654 -3.28524,3.69142c-0.77253,1.58488 -1.15879,3.43258 -1.15879,5.5431c0,2.11052 0.38626,3.94627 1.15879,5.50726c0.78049,1.56099 1.87558,2.7835 3.28524,3.66753c1.40967,0.87606 3.07021,1.3141 4.98162,1.3141zM357.96363,184.34966v-55.8133h11.85077v23.90462l-2.41316,0.90792c0.54953,-1.80788 1.54108,-3.45249 2.97464,-4.93384c1.43356,-1.48931 3.15383,-2.68394 5.16082,-3.5839c2.01495,-0.90792 4.12945,-1.36188 6.34351,-1.36188c3.01844,0 5.55505,0.61723 7.60982,1.85168c2.06273,1.22649 3.62372,3.06224 4.68296,5.50726c1.05924,2.43705 1.58886,5.41567 1.58886,8.93586v24.58557h-12.14943v-23.60597c0,-1.60877 -0.22698,-2.94278 -0.68094,-4.00202c-0.45396,-1.05924 -1.14685,-1.85168 -2.07866,-2.37732c-0.92385,-0.52564 -2.06672,-0.76457 -3.4286,-0.71678c-1.05128,0 -2.03088,0.16327 -2.9388,0.4898c-0.90792,0.32653 -1.68842,0.80439 -2.34148,1.43356c-0.65307,0.62917 -1.16676,1.34595 -1.54108,2.15034c-0.37432,0.80439 -0.56148,1.68443 -0.56148,2.64014v23.98825h-5.96122c-1.40967,0 -2.62023,0 -3.63169,0c-1.00349,0 -1.83177,0 -2.48484,0zM409.18216,184.34966v-50.16268h12.0658v50.16268zM402.09798,154.85415v-10.56056h26.92705v10.56056z"/><path d="M71.00826,235.72848v-24.26301h5.88955v24.26301zM73.74397,226.44617v-4.92189h12.5556v4.92189zM73.74397,216.66212v-5.19666h13.97722v5.19666zM91.52854,235.72848v-18.39736h5.26834l0.23893,5.98512l-1.03933,-1.1349c0.27875,-0.99553 0.73669,-1.88354 1.37383,-2.66403c0.63714,-0.78846 1.38179,-1.41365 2.23397,-1.87558c0.85217,-0.46193 1.76408,-0.69289 2.73571,-0.69289c0.41414,0 0.8004,0.03584 1.15879,0.10752c0.35839,0.06371 0.68891,0.14336 0.99155,0.23893l-1.52913,6.12847c-0.25486,-0.15928 -0.59732,-0.29069 -1.02739,-0.39423c-0.4221,-0.10353 -0.86412,-0.1553 -1.32604,-0.1553c-0.50971,0 -0.98358,0.08761 -1.42161,0.26282c-0.43803,0.16725 -0.80837,0.41414 -1.11101,0.74067c-0.29468,0.31857 -0.52962,0.70085 -0.70483,1.14685c-0.17521,0.43803 -0.26282,0.93181 -0.26282,1.48135v9.22257zM115.30327,236.07492c-2.03088,0 -3.79894,-0.41016 -5.30417,-1.23047c-1.49727,-0.82032 -2.66403,-1.93929 -3.50028,-3.35692c-0.82828,-1.4256 -1.24242,-3.0503 -1.24242,-4.87411c0,-1.40967 0.23096,-2.70385 0.69289,-3.88256c0.46193,-1.17871 1.10703,-2.19813 1.93531,-3.05826c0.83624,-0.8681 1.82381,-1.5371 2.96269,-2.00698c1.14685,-0.47785 2.40121,-0.71678 3.7631,-0.71678c1.2902,0 2.47289,0.23096 3.54806,0.69289c1.07517,0.46193 2.003,1.11101 2.7835,1.94725c0.78846,0.82828 1.38976,1.80788 1.8039,2.9388c0.4221,1.13092 0.60926,2.36538 0.56148,3.70337l-0.03584,1.49329h-14.65816l-0.8004,-3.11799h10.95479l-0.58537,0.65705v-0.69289c-0.04779,-0.58139 -0.22698,-1.09508 -0.53759,-1.54108c-0.3106,-0.45396 -0.72076,-0.80837 -1.23047,-1.06322c-0.50971,-0.25486 -1.08712,-0.38228 -1.73222,-0.38228c-0.89996,0 -1.66851,0.1792 -2.30564,0.53759c-0.63714,0.35839 -1.11897,0.88005 -1.44551,1.56497c-0.31857,0.67696 -0.47785,1.5132 -0.47785,2.50873c0,1.01942 0.21105,1.90345 0.63316,2.65209c0.43007,0.74864 1.05526,1.33401 1.87558,1.75611c0.82032,0.41414 1.79593,0.62121 2.92685,0.62121c0.78846,0 1.48931,-0.11548 2.10256,-0.34644c0.61325,-0.23096 1.27826,-0.62519 1.99504,-1.18269l2.59236,3.67947c-0.71678,0.62121 -1.48135,1.13092 -2.2937,1.52913c-0.80439,0.39025 -1.62868,0.68094 -2.47289,0.87208c-0.84421,0.19911 -1.68045,0.29866 -2.50873,0.29866zM135.61189,236.07492c-2.03088,0 -3.79894,-0.41016 -5.30417,-1.23047c-1.49727,-0.82032 -2.66403,-1.93929 -3.50028,-3.35692c-0.82828,-1.4256 -1.24242,-3.0503 -1.24242,-4.87411c0,-1.40967 0.23096,-2.70385 0.69289,-3.88256c0.46193,-1.17871 1.10703,-2.19813 1.93531,-3.05826c0.83624,-0.8681 1.82381,-1.5371 2.96269,-2.00698c1.14685,-0.47785 2.40121,-0.71678 3.7631,-0.71678c1.2902,0 2.47289,0.23096 3.54806,0.69289c1.07517,0.46193 2.003,1.11101 2.7835,1.94725c0.78846,0.82828 1.38976,1.80788 1.8039,2.9388c0.4221,1.13092 0.60926,2.36538 0.56148,3.70337l-0.03584,1.49329h-14.65816l-0.8004,-3.11799h10.95479l-0.58537,0.65705v-0.69289c-0.04779,-0.58139 -0.22698,-1.09508 -0.53759,-1.54108c-0.3106,-0.45396 -0.72076,-0.80837 -1.23047,-1.06322c-0.50971,-0.25486 -1.08712,-0.38228 -1.73222,-0.38228c-0.89996,0 -1.66851,0.1792 -2.30564,0.53759c-0.63714,0.35839 -1.11897,0.88005 -1.44551,1.56497c-0.31857,0.67696 -0.47785,1.5132 -0.47785,2.50873c0,1.01942 0.21105,1.90345 0.63316,2.65209c0.43007,0.74864 1.05526,1.33401 1.87558,1.75611c0.82032,0.41414 1.79593,0.62121 2.92685,0.62121c0.78846,0 1.48931,-0.11548 2.10256,-0.34644c0.61325,-0.23096 1.27826,-0.62519 1.99504,-1.18269l2.59236,3.67947c-0.71678,0.62121 -1.48135,1.13092 -2.2937,1.52913c-0.80439,0.39025 -1.62868,0.68094 -2.47289,0.87208c-0.84421,0.19911 -1.68045,0.29866 -2.50873,0.29866zM169.8896,236.07492c-1.8477,0 -3.53612,-0.3106 -5.06525,-0.93181c-1.52117,-0.62917 -2.85119,-1.50922 -3.99008,-2.64014c-1.13092,-1.13092 -2.00698,-2.45696 -2.62819,-3.97813c-0.62121,-1.52913 -0.93181,-3.2056 -0.93181,-5.02941c0,-1.82381 0.3106,-3.4963 0.93181,-5.01746c0.62121,-1.52913 1.49727,-2.85916 2.62819,-3.99008c1.13888,-1.13092 2.46891,-2.00698 3.99008,-2.62819c1.52913,-0.62917 3.2056,-0.94376 5.02941,-0.94376c1.82381,0 3.4963,0.31459 5.01746,0.94376c1.52913,0.62121 2.85916,1.49727 3.99008,2.62819c1.13092,1.13092 2.003,2.46095 2.61625,3.99008c0.61325,1.52117 0.91987,3.19365 0.91987,5.01746c0,1.79992 -0.30662,3.46842 -0.91987,5.00552c-0.61325,1.5371 -1.48533,2.8711 -2.61625,4.00202c-1.13092,1.13092 -2.46095,2.01097 -3.99008,2.64014c-1.52117,0.62121 -3.18171,0.93181 -4.98162,0.93181zM169.85376,230.53182c0.94774,0 1.81983,-0.17123 2.61625,-0.51369c0.79642,-0.35043 1.48931,-0.84421 2.07866,-1.48135c0.58935,-0.63714 1.04331,-1.38179 1.36188,-2.23397c0.32653,-0.85217 0.4898,-1.78797 0.4898,-2.80739c0,-1.01942 -0.16327,-1.95522 -0.4898,-2.80739c-0.31857,-0.85217 -0.77253,-1.59683 -1.36188,-2.23397c-0.58935,-0.63714 -1.28224,-1.12694 -2.07866,-1.4694c-0.79642,-0.35043 -1.66851,-0.52564 -2.61625,-0.52564c-0.94774,0 -1.81983,0.17521 -2.61625,0.52564c-0.79642,0.34246 -1.49727,0.83226 -2.10256,1.4694c-0.59732,0.63714 -1.05128,1.38179 -1.36188,2.23397c-0.3106,0.85217 -0.46591,1.78797 -0.46591,2.80739c0,1.01942 0.1553,1.96318 0.46591,2.83128c0.3106,0.86014 0.76457,1.60479 1.36188,2.23397c0.60528,0.62121 1.30613,1.10703 2.10256,1.45745c0.79642,0.34246 1.66851,0.51369 2.61625,0.51369zM187.52972,235.72848v-19.30528c0,-1.2026 0.25884,-2.28573 0.77651,-3.2494c0.51767,-0.97164 1.24242,-1.74018 2.17423,-2.30564c0.93978,-0.57342 2.03486,-0.86014 3.28524,-0.86014c0.87606,0 1.68443,0.12743 2.42511,0.38228c0.74067,0.25486 1.39772,0.61325 1.97115,1.07517l-1.58886,4.06176c-0.30264,-0.16725 -0.59333,-0.29468 -0.87208,-0.38228c-0.27078,-0.09557 -0.52166,-0.14336 -0.75262,-0.14336c-0.4221,0 -0.77253,0.07168 -1.05128,0.21503c-0.27078,0.13539 -0.46989,0.35043 -0.59732,0.6451c-0.12743,0.28671 -0.19114,0.63714 -0.19114,1.05128v18.81548h-2.77155c-0.62917,0 -1.18269,0 -1.66054,0c-0.46989,0 -0.85217,0 -1.14685,0zM184.85374,222.42025v-4.57545h12.02996v4.57545zM201.14855,235.72848v-19.30528c0,-1.2026 0.25884,-2.28573 0.77651,-3.2494c0.51767,-0.97164 1.24242,-1.74018 2.17423,-2.30564c0.93978,-0.57342 2.03486,-0.86014 3.28524,-0.86014c0.87606,0 1.68443,0.12743 2.42511,0.38228c0.74066,0.25486 1.3977,0.61325 1.97112,1.07517l-1.58886,4.06176c-0.30263,-0.16725 -0.59331,-0.29468 -0.87206,-0.38228c-0.27078,-0.09557 -0.52166,-0.14336 -0.75262,-0.14336c-0.4221,0 -0.77253,0.07168 -1.05128,0.21503c-0.27078,0.13539 -0.46989,0.35043 -0.59732,0.6451c-0.12743,0.28671 -0.19114,0.63714 -0.19114,1.05128v18.81548h-2.77155c-0.62917,0 -1.18269,0 -1.66054,0c-0.46989,0 -0.85217,0 -1.14685,0zM198.47257,222.42025v-4.57545h12.02994v4.57545zM213.65634,235.72848v-25.64879h5.5431v25.64879zM224.4689,235.72848v-18.39736h5.5431v18.39736zM227.24045,213.68748c-1.03535,0 -1.8477,-0.24689 -2.43705,-0.74067c-0.58935,-0.50175 -0.88403,-1.21454 -0.88403,-2.13839c0,-0.82828 0.29866,-1.50922 0.89598,-2.04282c0.60528,-0.5336 1.41365,-0.8004 2.42511,-0.8004c1.04331,0 1.85168,0.25087 2.42511,0.75262c0.58139,0.49378 0.87208,1.19065 0.87208,2.09061c0,0.86014 -0.29468,1.55701 -0.88403,2.09061c-0.58935,0.52564 -1.39374,0.78846 -2.41316,0.78846zM235.21365,235.72848v-18.39736h5.26834l0.16725,3.7392l-1.09906,0.41812c0.25486,-0.83624 0.70882,-1.59285 1.36188,-2.2698c0.66103,-0.68492 1.45347,-1.23446 2.37732,-1.64859c0.92385,-0.41414 1.89549,-0.62121 2.91491,-0.62121c1.38578,0 2.55253,0.28273 3.50028,0.84819c0.94774,0.56546 1.66054,1.40967 2.13839,2.53262c0.48582,1.11499 0.72873,2.48086 0.72873,4.09759v11.30124h-5.57894v-10.84728c0,-0.74067 -0.10353,-1.35392 -0.3106,-1.83974c-0.20707,-0.48582 -0.52564,-0.84819 -0.95571,-1.08712c-0.4221,-0.24689 -0.94774,-0.35839 -1.57692,-0.3345c-0.47785,0 -0.92783,0.07566 -1.34994,0.22698c-0.41414,0.15132 -0.77253,0.37432 -1.07517,0.66899c-0.29468,0.28671 -0.52962,0.61325 -0.70483,0.9796c-0.17521,0.36635 -0.26282,0.76855 -0.26282,1.20658v11.02647h-2.73571c-0.6451,0 -1.19862,0 -1.66054,0c-0.46193,0 -0.84421,0 -1.14685,0zM265.98905,236.07492c-2.03088,0 -3.79894,-0.41016 -5.30417,-1.23047c-1.49727,-0.82032 -2.66403,-1.93929 -3.50028,-3.35692c-0.82828,-1.4256 -1.24242,-3.0503 -1.24242,-4.87411c0,-1.40967 0.23096,-2.70385 0.69289,-3.88256c0.46193,-1.17871 1.10703,-2.19813 1.93531,-3.05826c0.83624,-0.8681 1.82381,-1.5371 2.96269,-2.00698c1.14685,-0.47785 2.40121,-0.71678 3.7631,-0.71678c1.2902,0 2.47289,0.23096 3.54806,0.69289c1.07517,0.46193 2.003,1.11101 2.7835,1.94725c0.78846,0.82828 1.38976,1.80788 1.8039,2.9388c0.4221,1.13092 0.60926,2.36538 0.56148,3.70337l-0.03584,1.49329h-14.65816l-0.8004,-3.11799h10.95479l-0.58537,0.65705v-0.69289c-0.04779,-0.58139 -0.22698,-1.09508 -0.53759,-1.54108c-0.3106,-0.45396 -0.72076,-0.80837 -1.23047,-1.06322c-0.50971,-0.25486 -1.08712,-0.38228 -1.73222,-0.38228c-0.89996,0 -1.66851,0.1792 -2.30564,0.53759c-0.63714,0.35839 -1.11897,0.88005 -1.44551,1.56497c-0.31857,0.67696 -0.47785,1.5132 -0.47785,2.50873c0,1.01942 0.21105,1.90345 0.63316,2.65209c0.43007,0.74864 1.05526,1.33401 1.87558,1.75611c0.82032,0.41414 1.79593,0.62121 2.92685,0.62121c0.78846,0 1.48931,-0.11548 2.10256,-0.34644c0.61325,-0.23096 1.27826,-0.62519 1.99504,-1.18269l2.59236,3.67947c-0.71678,0.62121 -1.48135,1.13092 -2.2937,1.52913c-0.80439,0.39025 -1.62868,0.68094 -2.47289,0.87208c-0.84421,0.19911 -1.68045,0.29866 -2.50873,0.29866zM300.46982,236.07492c-1.94327,0 -3.69938,-0.3106 -5.26834,-0.93181c-1.56895,-0.62917 -2.91889,-1.50922 -4.04981,-2.64014c-1.13092,-1.13092 -1.99902,-2.46493 -2.6043,-4.00202c-0.59732,-1.5371 -0.89598,-3.2056 -0.89598,-5.00552c0,-1.79992 0.31459,-3.45647 0.94376,-4.96968c0.63714,-1.5132 1.54506,-2.83526 2.72377,-3.96618c1.17871,-1.13888 2.56846,-2.01893 4.16927,-2.64014c1.60877,-0.62121 3.3609,-0.93181 5.25639,-0.93181c1.34595,0 2.61227,0.17521 3.79894,0.52564c1.18667,0.34246 2.26582,0.81633 3.23746,1.42161c0.97164,0.59732 1.79195,1.28622 2.46095,2.06672l-3.57196,3.77504c-0.57342,-0.54953 -1.16676,-1.00747 -1.78,-1.37383c-0.61325,-0.37432 -1.26631,-0.66899 -1.9592,-0.88403c-0.69289,-0.223 -1.43356,-0.3345 -2.22202,-0.3345c-1.01146,0 -1.93929,0.18716 -2.7835,0.56148c-0.84421,0.36635 -1.58488,0.88005 -2.22202,1.54108c-0.63714,0.65307 -1.13092,1.4256 -1.48135,2.31759c-0.34246,0.88403 -0.51369,1.8477 -0.51369,2.89101c0,1.03535 0.18318,2.00698 0.54953,2.91491c0.37432,0.89996 0.88403,1.68045 1.52913,2.34148c0.65307,0.65307 1.42161,1.17074 2.30564,1.55302c0.89199,0.38228 1.8477,0.57342 2.86712,0.57342c0.71678,0 1.38976,-0.11548 2.01893,-0.34644c0.63714,-0.23096 1.18667,-0.54157 1.64859,-0.93181c0.46193,-0.39821 0.83226,-0.8681 1.11101,-1.40967c0.27875,-0.54157 0.41812,-1.12296 0.41812,-1.74417v-0.90792l0.76457,1.18269h-6.68995v-4.61129h11.39681c0.04779,0.25486 0.08362,0.6013 0.10752,1.03933c0.02389,0.43803 0.03982,0.86412 0.04779,1.27826c0.01593,0.41414 0.02389,0.72873 0.02389,0.94376c0,1.56895 -0.28273,3.0065 -0.84819,4.31263c-0.56546,1.30613 -1.3579,2.43307 -2.37732,3.38081c-1.01942,0.94774 -2.22202,1.68842 -3.60779,2.22202c-1.38578,0.52564 -2.88703,0.78846 -4.50377,0.78846zM322.51782,236.03908c-1.55302,0 -2.93482,-0.41016 -4.14538,-1.23047c-1.21056,-0.82032 -2.17423,-1.95124 -2.89101,-3.39276c-0.71678,-1.44152 -1.07517,-3.07817 -1.07517,-4.90995c0,-1.87159 0.35839,-3.52019 1.07517,-4.94578c0.71678,-1.43356 1.69638,-2.5605 2.9388,-3.38081c1.25038,-0.82032 2.672,-1.23047 4.26484,-1.23047c0.87606,0 1.67647,0.12743 2.40121,0.38228c0.73271,0.24689 1.37383,0.59732 1.92336,1.05128c0.5575,0.45396 1.03137,0.97562 1.42161,1.56497c0.39821,0.58935 0.68891,1.21853 0.87208,1.88752l-1.14685,-0.14336v-4.36041h5.51921v18.39736h-5.61478v-4.43209l1.24242,-0.03584c-0.18318,0.6451 -0.48184,1.25835 -0.89598,1.83974c-0.41414,0.57342 -0.92385,1.07915 -1.52913,1.51719c-0.59732,0.43803 -1.26631,0.78448 -2.00698,1.03933c-0.74067,0.25486 -1.52515,0.38228 -2.35343,0.38228zM324.035,231.35612c0.86014,0 1.60081,-0.19512 2.22202,-0.58537c0.62121,-0.39025 1.10305,-0.94774 1.44551,-1.67249c0.35043,-0.73271 0.52564,-1.59683 0.52564,-2.59236c0,-0.98756 -0.17521,-1.84372 -0.52564,-2.56846c-0.34246,-0.73271 -0.8243,-1.30215 -1.44551,-1.70833c-0.62121,-0.40618 -1.36188,-0.60926 -2.22202,-0.60926c-0.82828,0 -1.54904,0.20309 -2.16229,0.60926c-0.61325,0.40618 -1.09508,0.97562 -1.44551,1.70833c-0.34246,0.72474 -0.51369,1.5809 -0.51369,2.56846c0,0.99553 0.17123,1.85965 0.51369,2.59236c0.35043,0.72474 0.83226,1.28224 1.44551,1.67249c0.61325,0.39025 1.33401,0.58537 2.16229,0.58537zM338.52302,235.72848v-18.39736h5.26834l0.1792,3.32108l-0.72873,0.03584c0.27078,-0.59732 0.62121,-1.12694 1.05128,-1.58886c0.43007,-0.46989 0.91589,-0.86014 1.45745,-1.17074c0.54157,-0.3106 1.10703,-0.54555 1.69638,-0.70483c0.58935,-0.15928 1.18269,-0.23893 1.78,-0.23893c0.90792,0 1.72824,0.13937 2.46095,0.41812c0.74067,0.27078 1.38976,0.7128 1.94725,1.32604c0.5575,0.61325 0.99553,1.43754 1.3141,2.47289l-0.86014,-0.05973l0.27477,-0.56148c0.30264,-0.54953 0.68891,-1.05128 1.15879,-1.50524c0.46989,-0.45396 0.99553,-0.83624 1.57692,-1.14685c0.58139,-0.3106 1.18269,-0.54555 1.8039,-0.70483c0.62121,-0.15928 1.22251,-0.23893 1.8039,-0.23893c1.44949,0 2.66005,0.28273 3.63169,0.84819c0.97164,0.56546 1.70434,1.41365 2.19813,2.54457c0.50175,1.13092 0.75262,2.50475 0.75262,4.12149v11.22956h-5.57894v-10.7756c0,-0.74067 -0.10353,-1.35392 -0.3106,-1.83974c-0.20707,-0.48582 -0.51369,-0.84819 -0.91987,-1.08712c-0.40618,-0.24689 -0.90792,-0.37034 -1.50524,-0.37034c-0.48582,0 -0.93181,0.08362 -1.33799,0.25087c-0.40618,0.15928 -0.75262,0.3783 -1.03933,0.65705c-0.28671,0.27078 -0.51369,0.59333 -0.68094,0.96765c-0.15928,0.36635 -0.23893,0.78049 -0.23893,1.24242v10.95479h-5.57894v-10.81144c0,-0.69289 -0.10353,-1.28224 -0.3106,-1.76806c-0.20707,-0.48582 -0.52166,-0.85615 -0.94376,-1.11101c-0.41414,-0.25486 -0.89598,-0.38228 -1.44551,-0.38228c-0.48582,0 -0.93181,0.08362 -1.33799,0.25087c-0.40618,0.15928 -0.75262,0.3783 -1.03933,0.65705c-0.28671,0.27078 -0.51369,0.59333 -0.68094,0.96765c-0.15928,0.36635 -0.23893,0.76855 -0.23893,1.20658v10.99063zM380.6669,236.07492c-2.03088,0 -3.79894,-0.41016 -5.30417,-1.23047c-1.49727,-0.82032 -2.66403,-1.93929 -3.50028,-3.35692c-0.82828,-1.4256 -1.24242,-3.0503 -1.24242,-4.87411c0,-1.40967 0.23096,-2.70385 0.69289,-3.88256c0.46193,-1.17871 1.10703,-2.19813 1.93531,-3.05826c0.83624,-0.8681 1.82381,-1.5371 2.96269,-2.00698c1.14685,-0.47785 2.40121,-0.71678 3.7631,-0.71678c1.2902,0 2.47289,0.23096 3.54806,0.69289c1.07517,0.46193 2.003,1.11101 2.7835,1.94725c0.78846,0.82828 1.38976,1.80788 1.8039,2.9388c0.4221,1.13092 0.60926,2.36538 0.56148,3.70337l-0.03584,1.49329h-14.65816l-0.8004,-3.11799h10.95479l-0.58537,0.65705v-0.69289c-0.04779,-0.58139 -0.22698,-1.09508 -0.53759,-1.54108c-0.3106,-0.45396 -0.72076,-0.80837 -1.23047,-1.06322c-0.50971,-0.25486 -1.08712,-0.38228 -1.73222,-0.38228c-0.89996,0 -1.66851,0.1792 -2.30564,0.53759c-0.63714,0.35839 -1.11897,0.88005 -1.44551,1.56497c-0.31857,0.67696 -0.47785,1.5132 -0.47785,2.50873c0,1.01942 0.21105,1.90345 0.63316,2.65209c0.43007,0.74864 1.05526,1.33401 1.87558,1.75611c0.82032,0.41414 1.79593,0.62121 2.92685,0.62121c0.78846,0 1.48931,-0.11548 2.10256,-0.34644c0.61325,-0.23096 1.27826,-0.62519 1.99504,-1.18269l2.59236,3.67947c-0.71678,0.62121 -1.48135,1.13092 -2.2937,1.52913c-0.80439,0.39025 -1.62868,0.68094 -2.47289,0.87208c-0.84421,0.19911 -1.68045,0.29866 -2.50873,0.29866zM398.40703,236.07492c-1.79992,0 -3.38878,-0.28671 -4.76659,-0.86014c-1.36985,-0.58139 -2.46095,-1.3579 -3.2733,-2.32954l3.36887,-2.91491c0.71678,0.71678 1.52515,1.24242 2.42511,1.57692c0.89996,0.3345 1.75213,0.50175 2.55652,0.50175c0.32653,0 0.61723,-0.03186 0.87208,-0.09557c0.25486,-0.07168 0.46591,-0.17123 0.63316,-0.29866c0.17521,-0.12743 0.3106,-0.27477 0.40618,-0.44201c0.09557,-0.17521 0.14336,-0.3783 0.14336,-0.60926c0,-0.46193 -0.21105,-0.82032 -0.63316,-1.07517c-0.20707,-0.11946 -0.55351,-0.25884 -1.03933,-0.41812c-0.48582,-0.15928 -1.10703,-0.34644 -1.86363,-0.56148c-1.0911,-0.27078 -2.03486,-0.59732 -2.83128,-0.9796c-0.79642,-0.38228 -1.44949,-0.82828 -1.9592,-1.33799c-0.46193,-0.48582 -0.82032,-1.0234 -1.07517,-1.61276c-0.25486,-0.58935 -0.38228,-1.25437 -0.38228,-1.99504c0,-0.85217 0.20309,-1.6247 0.60926,-2.31759c0.40618,-0.69289 0.94774,-1.29419 1.6247,-1.8039c0.68492,-0.50971 1.47338,-0.89598 2.36538,-1.15879c0.89199,-0.26282 1.80788,-0.39423 2.74766,-0.39423c1.01942,0 1.99106,0.11548 2.91491,0.34644c0.92385,0.23096 1.78399,0.55351 2.58041,0.96765c0.79642,0.41414 1.50922,0.9119 2.13839,1.49329l-2.91491,3.2494c-0.41414,-0.39025 -0.88403,-0.74067 -1.40967,-1.05128c-0.51767,-0.3106 -1.05526,-0.5575 -1.61276,-0.74067c-0.54953,-0.19114 -1.05526,-0.28671 -1.51719,-0.28671c-0.35043,0 -0.65705,0.03186 -0.91987,0.09557c-0.26282,0.05575 -0.4898,0.14734 -0.68094,0.27477c-0.18318,0.12743 -0.32255,0.27875 -0.41812,0.45396c-0.08761,0.16725 -0.13141,0.36635 -0.13141,0.59732c0,0.23096 0.06371,0.44998 0.19114,0.65705c0.12743,0.20707 0.30662,0.38228 0.53759,0.52564c0.23096,0.13539 0.6013,0.29069 1.11101,0.46591c0.50971,0.17521 1.2026,0.39025 2.07866,0.6451c1.08313,0.29468 2.01893,0.62917 2.80739,1.00349c0.78846,0.36635 1.41365,0.80439 1.87558,1.3141c0.36635,0.39025 0.64112,0.84819 0.8243,1.37383c0.18318,0.51767 0.27477,1.07517 0.27477,1.67249c0,1.17871 -0.33052,2.226 -0.99155,3.14189c-0.65307,0.90792 -1.55701,1.6247 -2.71182,2.15034c-1.15481,0.51767 -2.47289,0.77651 -3.95424,0.77651z"/></g></g></svg>